<svg xmlns="http://www.w3.org/2000/svg" viewBox="0 0 389.07 312.23"><defs><style>.cls-1{fill:#6d6a66;}.cls-2{fill:#fff;}</style></defs><title>mouton_menu</title><g id="Calque_2" data-name="Calque 2"><g id="Calque_2-2" data-name="Calque 2"><path class="cls-1" d="M120.44,264.58s-4,28.6-8.35,37,5.64,16.37,9.52,1.22S133,264.88,133,264.88Z"/><path class="cls-1" d="M121.94,268.61s11.47,26.52,12.17,35.92,13.35,11,8.76-3.92-10.11-38.27-10.11-38.27Z"/><path class="cls-1" d="M185.63,259.6s-5.54,31.47-10.29,40.62,4.8,18.18,9.47,1.56,13.33-41.58,13.33-41.58Z"/><path class="cls-1" d="M189.22,261.56s7,31.18,6.09,41.46,11.41,15,9.34-2.2S201,257.31,201,257.31Z"/><ellipse class="cls-2" cx="178.03" cy="146.66" rx="143.96" ry="108.45"/><circle class="cls-2" cx="83.63" cy="65.76" r="27.55" transform="translate(0.42 132.04) rotate(-76.72)"/><ellipse class="cls-2" cx="160.82" cy="59.97" rx="68.61" ry="59.97"/><circle class="cls-2" cx="242" cy="69.49" r="55.41"/><circle class="cls-2" cx="64.24" cy="191.11" r="35.02" transform="translate(-136.52 209.72) rotate(-76.72)"/><ellipse class="cls-2" cx="130.93" cy="226.62" rx="55.65" ry="44.62"/><circle class="cls-2" cx="192.34" cy="243.41" r="24.95" transform="translate(-78.51 92.13) rotate(-22.5)"/><ellipse class="cls-2" cx="245.59" cy="223.72" rx="47.5" ry="44.64"/><ellipse class="cls-2" cx="58.99" cy="111.07" rx="32.59" ry="35.59"/><ellipse class="cls-2" cx="24.87" cy="140.61" rx="30.29" ry="22.25" transform="translate(-106.89 85.59) rotate(-57.31)"/><path class="cls-1" d="M293.09,93.31s94,.41,96,88.69-116.11-2.33-111.31-44.35S293.09,93.31,293.09,93.31Z"/><path class="cls-1" d="M251.83,105.23s-53.73,13.18-34.54,35.38,50.85-35.38,50.85-35.38S252.79,116.75,251.83,105.23Z"/><path class="cls-2" d="M311.32,132.1c3.27-.18,6.42-.22,9.54-.3s6.2-.17,9.22-.44a46,46,0,0,0,8.84-1.52,19.07,19.07,0,0,0,7.91-4.37c-1,3.18-3.7,5.76-6.72,7.29a26.39,26.39,0,0,1-9.68,2.58,39.51,39.51,0,0,1-9.79-.41A34.39,34.39,0,0,1,311.32,132.1Z"/><path class="cls-2" d="M315.3,133.55a7.14,7.14,0,0,1,0,2.53,10.35,10.35,0,0,1-.73,2.33,9.47,9.47,0,0,1-1.27,2.11,6.4,6.4,0,0,1-1.94,1.66,13.54,13.54,0,0,1,.56-2.41,17.67,17.67,0,0,1,.83-2.17,17.87,17.87,0,0,1,1.08-2.08A11.24,11.24,0,0,1,315.3,133.55Z"/><path class="cls-2" d="M325.11,133.55a7.37,7.37,0,0,1,1.69,2.57,9.56,9.56,0,0,1,.68,3,8.13,8.13,0,0,1-.45,3.12,5.16,5.16,0,0,1-1.92,2.48,25.09,25.09,0,0,0,.39-2.83c0-.9,0-1.77,0-2.67C325.39,137.43,325.14,135.63,325.11,133.55Z"/><path class="cls-2" d="M335.35,133.55a17.14,17.14,0,0,1,1.85,4.23c.23.7.42,1.39.6,2.11s.37,1.42.53,2.29a4.75,4.75,0,0,1-1.94-1.6,7.66,7.66,0,0,1-1.09-2.2,8.46,8.46,0,0,1-.38-2.39A6,6,0,0,1,335.35,133.55Z"/><path class="cls-2" d="M342.9,129.51c1.39,1.23,2.42,2.38,3.54,3.42.56.53,1.13,1,1.74,1.47s1.3.85,2.1,1.38a4.48,4.48,0,0,1-2.78,0,6.28,6.28,0,0,1-2.42-1.41,7.27,7.27,0,0,1-1.6-2.23A5.75,5.75,0,0,1,342.9,129.51Z"/><path class="cls-2" d="M364.61,168.16c2.52,2.2,4.82,4.46,7.15,6.63,1.17,1.08,2.32,2.14,3.5,3.11a20.92,20.92,0,0,0,3.56,2.46,4.87,4.87,0,0,0,1.56.53,1.26,1.26,0,0,0,.92-.19,3.19,3.19,0,0,0,.95-1.2,11.32,11.32,0,0,0,.77-1.95c.85-2.87,1.23-6.12,1.89-9.39a25.19,25.19,0,0,1,1.19,10,11.52,11.52,0,0,1-.6,2.71,6.57,6.57,0,0,1-1.8,2.76,5,5,0,0,1-1.71,1,5.72,5.72,0,0,1-1.9.23,8.53,8.53,0,0,1-3.06-.89,18.4,18.4,0,0,1-4.31-3.23,32.21,32.21,0,0,1-3.3-3.84A35.94,35.94,0,0,1,364.61,168.16Z"/><path class="cls-2" d="M381.9,183.8a31,31,0,0,1,1.42,7.63,44,44,0,0,1-.09,7.78c-.12,1.3-.34,2.58-.54,3.86s-.5,2.55-.9,3.79a33.56,33.56,0,0,1-2.89,7.2c.43-2.56,1-5,1.36-7.54s.75-5,1-7.5.41-5,.53-7.56S381.91,186.39,381.9,183.8Z"/><ellipse class="cls-2" cx="296.45" cy="82.91" rx="18.85" ry="17.15"/><ellipse class="cls-2" cx="282.78" cy="101.34" rx="14.63" ry="12.79"/><circle class="cls-2" cx="283.61" cy="121.4" r="10.33"/><circle class="cls-2" cx="279.29" cy="142.01" r="14.66" transform="translate(-18.62 239.08) rotate(-45)"/><circle class="cls-2" cx="309.53" cy="93.47" r="15.58"/><circle class="cls-2" cx="306.12" cy="70.96" r="22.51" transform="translate(166.72 352.59) rotate(-76.72)"/></g></g></svg>