<svg xmlns="http://www.w3.org/2000/svg" viewBox="0 0 1081.39 1920.46"><defs><style>.cls-1{fill:#f98885;}.cls-2,.cls-4{fill:#fff;}.cls-3{fill:#6d6a66;}.cls-4{font-size:229.12px;font-family:Luna, Luna;}</style></defs><title>splaschscreen_moot</title><g id="Calque_2" data-name="Calque 2"><g id="Calque_2-2" data-name="Calque 2"><polyline class="cls-1" points="1.39 1920 1.39 0 1081.39 0 1081.39 1920"/><path class="cls-2" d="M407.21,1920.46c118.18-36.25,186.36-140.66,152.3-251.72A198.75,198.75,0,0,0,538.86,1623c60-108.92,78.95-228.47,44.32-341.37-32.28-105.24-106.36-189.16-206-245.86A261.56,261.56,0,0,0,365.83,968,260.16,260.16,0,0,0,244.65,817.24C184.18,773.29,99.17,760.7,0,791.12L1.39,1920Z"/><path class="cls-3" d="M504,1076.92s257.36-41.62,175.59-153.13-252.21,147-252.21,147S503.85,1022.47,504,1076.92Z"/><path class="cls-3" d="M379.3,1081.26s424.18-128.12,554.82,266.92-526.26,150-562.71-45.94S379.3,1081.26,379.3,1081.26Z"/><path class="cls-3" d="M215.23,1178.3s-255.69,50.91-169.94,159.38,246.73-156,246.73-156S217.36,1232.7,215.23,1178.3Z"/><path class="cls-2" d="M804.93,1319.62c12.49,8.83,25.21,17.28,38.33,25,6.59,3.78,13.25,7.44,20.12,10.56s13.93,5.87,21.17,7.11a29,29,0,0,0,10.63.08,15.75,15.75,0,0,0,4.63-1.9,13.62,13.62,0,0,0,3.49-3.49,22.14,22.14,0,0,0,3.27-9.94,24.89,24.89,0,0,0,.22-2.74c0-.92.11-1.84.07-2.77l0-2.79-.19-2.8c0-.94-.18-1.87-.29-2.8s-.19-1.87-.35-2.8c-.31-1.86-.55-3.74-.93-5.59s-.7-3.73-1.13-5.58l-.62-2.78-.7-2.76c-1.81-7.4-4-14.71-6.26-22a229.81,229.81,0,0,1,8.15,21.49,126.26,126.26,0,0,1,5.23,22.53,53.82,53.82,0,0,1,.33,11.78c0,.5-.08,1-.14,1.5l-.26,1.49c-.09.5-.15,1-.28,1.49l-.4,1.48a22.66,22.66,0,0,1-1,2.93,14.36,14.36,0,0,1-.7,1.42,11.11,11.11,0,0,1-.8,1.37,16.49,16.49,0,0,1-4.51,4.61,19.28,19.28,0,0,1-5.89,2.49,32.51,32.51,0,0,1-12.16,0,69.9,69.9,0,0,1-11.37-3.12,115.34,115.34,0,0,1-10.74-4.51,200.23,200.23,0,0,1-20.13-11.33c-6.5-4.11-12.77-8.53-18.91-13.12S810.63,1324.73,804.93,1319.62Z"/><path class="cls-2" d="M904.42,1366.18c2.92,5.28,5.38,10.81,7.79,16.35,1.13,2.8,2.3,5.59,3.35,8.43l1.56,4.25c.53,1.42,1,2.84,1.5,4.28.93,2.88,2,5.73,2.78,8.63l2.53,8.72,2.2,8.8c.39,1.47.68,2.95,1,4.43l.94,4.44.9,4.45.74,4.47c.46,3,1,6,1.41,9,.66,6,1.52,12,1.77,18l.29,4.53c.09,1.51.22,3,.2,4.53l.09,9.07c0,1.51.06,3,0,4.53l-.23,4.52c-.14,3-.31,6-.49,9a350.05,350.05,0,0,0-1.37-36.09c-.44-6-1.33-12-2.09-17.92-.42-3-1-5.93-1.47-8.89l-.75-4.45-.92-4.41a328.78,328.78,0,0,0-9-34.93A290.25,290.25,0,0,0,904.42,1366.18Z"/><ellipse class="cls-2" cx="380.05" cy="1029.77" rx="88.84" ry="80.82" transform="translate(-285.28 156.73) rotate(-17.05)"/><ellipse class="cls-2" cx="343.92" cy="1131.69" rx="68.95" ry="60.29" transform="translate(-316.76 150.62) rotate(-17.05)"/><circle class="cls-2" cx="375.41" cy="1220.92" r="48.69" transform="translate(-879.06 980.37) rotate(-62.05)"/><circle class="cls-2" cx="384.42" cy="1319.74" r="69.06" transform="matrix(1, -0.07, 0.07, 1, -85.96, 28.14)"/><circle class="cls-2" cx="453.56" cy="1059.25" r="73.43" transform="translate(-616.16 630.97) rotate(-45)"/><circle class="cls-2" cx="407.09" cy="962.58" r="106.05" transform="translate(-561.41 569.79) rotate(-45)"/><circle class="cls-2" cx="552.33" cy="1182.97" r="65.19" transform="translate(-156.13 86.35) rotate(-7.84)"/><ellipse class="cls-2" cx="630.52" cy="1125.58" rx="36.15" ry="43" transform="translate(-574.86 665.65) rotate(-39.86)"/><circle cx="573.69" cy="1151.57" r="26.72" transform="translate(-312.49 218.87) rotate(-17.05)"/><ellipse cx="606.6" cy="1127.91" rx="13.31" ry="15.83" transform="translate(-581.91 650.86) rotate(-39.86)"/><path class="cls-2" d="M649.66,1385.63a263.52,263.52,0,0,0,8.61,27.61,276.52,276.52,0,0,0,11.35,26.49c8.52,17.17,19,33.47,32.08,47.31s29,25,47,31.41a129.89,129.89,0,0,0,13.74,3.94,127.3,127.3,0,0,0,14.17,2.22,151,151,0,0,0,28.84-.09,128.87,128.87,0,0,1-29,2A124.81,124.81,0,0,1,762,1525a118.4,118.4,0,0,1-14.23-3.56,110.41,110.41,0,0,1-26.45-12.72,112.35,112.35,0,0,1-11.77-8.81,141.53,141.53,0,0,1-10.7-10.08,165,165,0,0,1-18-23.08,201.44,201.44,0,0,1-14-25.64,234.23,234.23,0,0,1-10.39-27.2A202.44,202.44,0,0,1,649.66,1385.63Z"/><text class="cls-4" transform="translate(194.3 702.87) rotate(-7.99)">Moot</text><circle class="cls-2" cx="532.14" cy="583.25" r="50.21"/><circle class="cls-2" cx="692.97" cy="564.7" r="36.6"/></g></g></svg>