<svg xmlns="http://www.w3.org/2000/svg" viewBox="0 0 1024 1024"><defs><style>.cls-1{fill:#f98885;}.cls-2{fill:#fff;}.cls-3{fill:#6d6a66;}</style></defs><title>logo_moot</title><g id="Calque_2" data-name="Calque 2"><g id="Calque_2-2" data-name="Calque 2"><rect class="cls-1" width="1024" height="1024"/><path class="cls-2" d="M542.23,545.21c0-105.59-44.33-203.38-119.72-283.39A250.7,250.7,0,0,0,336.05,0H0V1024H360.67c31.78-35.18,51-80.72,51-130.48a190.4,190.4,0,0,0-6.07-47.75C491.21,762.77,542.23,658.48,542.23,545.21Z"/><path class="cls-3" d="M527.22,335.22s247.7,34.23,204.09-91S458.69,308,458.69,308,542.38,285.24,527.22,335.22Z"/><path class="cls-3" d="M411.63,304.11s425,1.84,433.68,400.83S320.56,694.43,342.24,504.53,411.63,304.11,411.63,304.11Z"/><path class="cls-3" d="M233.88,347S-14.9,321.71,33.23,445.3s270.12-73.66,270.12-73.66S220.54,397.44,233.88,347Z"/><path class="cls-2" d="M734.88,642.41c9,11.59,18.3,22.9,28.18,33.63,5,5.32,10.05,10.55,15.48,15.33s11.12,9.3,17.4,12.47a27.75,27.75,0,0,0,9.69,3,14.74,14.74,0,0,0,4.75-.44,12.79,12.79,0,0,0,4.16-2.19,21.28,21.28,0,0,0,5.78-8.17,25,25,0,0,0,1-2.45c.28-.83.62-1.65.84-2.51l.75-2.57.61-2.62c.22-.87.36-1.76.53-2.64s.35-1.77.47-2.67c.24-1.79.54-3.58.72-5.38s.42-3.61.54-5.43l.22-2.72.14-2.74c.43-7.28.46-14.61.5-22q1.27,10.94,1.46,22a120.36,120.36,0,0,1-1.52,22.14,51.31,51.31,0,0,1-3,10.91c-.18.44-.35.89-.55,1.33l-.65,1.3c-.23.43-.42.88-.68,1.29l-.78,1.26a22.55,22.55,0,0,1-1.78,2.4,13.42,13.42,0,0,1-1,1.1,11.13,11.13,0,0,1-1.12,1.05,16,16,0,0,1-5.47,3,18.29,18.29,0,0,1-6.13.64,31.16,31.16,0,0,1-11.19-3.38,66.71,66.71,0,0,1-9.56-6.07,107.49,107.49,0,0,1-8.58-7.17,191.31,191.31,0,0,1-15.28-16.06c-4.79-5.6-9.3-11.42-13.63-17.36S738.66,648.71,734.88,642.41Z"/><path class="cls-2" d="M813,713.09c1.2,5.67,1.9,11.43,2.56,17.19.25,2.88.54,5.77.71,8.66l.24,4.35c.08,1.44.15,2.89.17,4.34,0,2.9.18,5.8.13,8.7l-.14,8.7-.45,8.7c-.15,2.9-.49,5.78-.73,8.67l-.42,4.33-.58,4.32c-.42,2.87-.73,5.76-1.23,8.62-1.09,5.7-2,11.44-3.46,17.05l-1,4.23c-.35,1.41-.65,2.83-1.1,4.21l-2.48,8.34c-.44,1.38-.79,2.79-1.31,4.14l-1.49,4.09c-1,2.72-2,5.44-3,8.14a337,337,0,0,0,8.86-33.49c1.29-5.62,2.15-11.33,3.12-17,.45-2.85.77-5.71,1.16-8.57l.56-4.29.39-4.3a313.77,313.77,0,0,0,1.62-34.55A279.7,279.7,0,0,0,813,713.09Z"/><ellipse class="cls-2" cx="426.81" cy="257.11" rx="85.21" ry="77.52"/><ellipse class="cls-2" cx="365.01" cy="340.41" rx="66.14" ry="57.83"/><circle class="cls-2" cx="368.78" cy="431.09" r="46.7" transform="translate(-196.81 387.03) rotate(-45)"/><circle class="cls-2" cx="349.25" cy="524.23" r="66.24" transform="translate(-241.2 743.69) rotate(-76.72)"/><circle class="cls-2" cx="485.92" cy="304.83" r="70.43" transform="translate(-73.22 432.88) rotate(-45)"/><circle class="cls-2" cx="470.5" cy="203.11" r="101.72"/><circle class="cls-2" cx="541.69" cy="446.05" r="62.52" transform="translate(14.63 909.3) rotate(-80.78)"/><ellipse class="cls-2" cx="629.53" cy="415.42" rx="34.67" ry="41.24" transform="translate(-111.8 276.48) rotate(-22.81)"/><circle cx="558.92" cy="438.51" r="25.63"/><ellipse cx="627.83" cy="414.83" rx="12.76" ry="15.18" transform="translate(-111.71 275.77) rotate(-22.8)"/><path class="cls-2" d="M573.94,659.27a251.42,251.42,0,0,0,.17,27.73,262.85,262.85,0,0,0,3,27.48c3,18.14,8,36,16.12,52.38s19.58,31.08,34.25,42a120.77,120.77,0,0,0,11.48,7.48,118.67,118.67,0,0,0,12.36,6,146.27,146.27,0,0,0,26.45,8.07,123.91,123.91,0,0,1-27.17-6.24,119.92,119.92,0,0,1-12.88-5.56,114.53,114.53,0,0,1-12.07-7.26,106,106,0,0,1-20.69-19.1,108.09,108.09,0,0,1-8.33-11.41,139.57,139.57,0,0,1-7-12.25,159.15,159.15,0,0,1-10-26.25A192.72,192.72,0,0,1,574,714.94a220.63,220.63,0,0,1-1.85-27.88A191,191,0,0,1,573.94,659.27Z"/></g></g></svg>